<svg xmlns="http://www.w3.org/2000/svg" xmlns:xlink="http://www.w3.org/1999/xlink" preserveAspectRatio="xMidYMid" width="200" height="200" viewBox="0 0 200 200">
  <defs>
    <style>
      .cls-1 {
        fill: #6d6e71;
      }

      .cls-1, .cls-2, .cls-3 {
        fill-rule: evenodd;
      }

      .cls-2 {
        fill: #f9ca24;
      }

      .cls-3 {
        fill: #1761a0;
      }
    </style>
  </defs>
  <path d="M22.000,156.000 L23.000,154.000 L24.000,153.000 L25.000,152.000 L26.000,151.000 L28.000,150.000 L33.000,150.000 L35.000,151.000 L36.000,152.000 L37.000,153.000 L38.000,154.000 L39.000,156.000 L39.000,161.000 L38.000,163.000 L37.000,164.000 L36.000,165.000 L35.000,166.000 L33.000,167.000 L28.000,167.000 L26.000,166.000 L25.000,165.000 L24.000,164.000 L23.000,163.000 L22.000,161.000 L22.000,156.000 ZM26.000,156.000 L27.000,155.000 L28.000,154.000 L33.000,154.000 L34.000,155.000 L35.000,156.000 L35.000,161.000 L34.000,162.000 L33.000,163.000 L28.000,163.000 L27.000,162.000 L26.000,161.000 L26.000,156.000 Z" class="cls-1"/>
  <path d="M10.000,75.000 L100.000,131.000 L190.000,75.000 L100.000,20.000 L10.000,75.000 Z" class="cls-2"/>
  <path d="M84.000,52.000 L86.000,54.000 L32.000,89.000 L32.000,153.000 L29.000,153.000 L29.000,88.000 L84.000,52.000 Z" class="cls-1"/>
  <path d="M45.000,102.000 L45.000,143.000 L100.000,180.000 L155.000,143.000 L155.000,102.000 L100.000,136.000 L45.000,102.000 Z" class="cls-3"/>
</svg>
